<svg width="113" height="95" viewBox="0 0 113 95" fill="none" xmlns="http://www.w3.org/2000/svg" role="img" aria-label="Ecotone">
<path fill="currentColor" d="M85.19 33.21C84.43 27.88 81.63 23.17 77.33 19.95C77.13 19.8 76.93 19.66 76.73 19.52C76.4 8.69999 67.49 0 56.59 0C45.92 0 37.17 8.32999 36.49 18.83C33.33 20.81 30.77 23.63 29.1 27.07C26.74 31.91 26.41 37.37 28.17 42.46C29.93 47.55 33.56 51.65 38.4 54C41.19 55.36 44.19 56.04 47.2 56.04C49.41 56.04 51.64 55.67 53.79 54.93C54.57 54.66 55.32 54.35 56.05 53.99L56.18 54.07C58.98 55.49 62.06 56.23 65.21 56.23C66.17 56.23 67.14 56.16 68.11 56.02C73.44 55.26 78.15 52.46 81.37 48.16C84.6 43.84 85.96 38.54 85.19 33.21ZM56.59 3.64999C64.75 3.64999 71.55 9.61 72.86 17.41C71.42 16.82 69.93 16.4 68.39 16.16C66.73 11.24 62.07 7.69 56.59 7.69C49.72 7.69 44.13 13.28 44.13 20.15C44.13 26.6 49.06 31.91 55.34 32.54C55.41 32.7 55.47 32.86 55.52 33.02C55.93 34.2 56.08 35.43 55.97 36.63H55.9C47.12 36.27 40.08 29.02 40.08 20.15C40.1 11.05 47.5 3.64999 56.59 3.64999ZM64.33 15.94C63.69 15.97 63.04 16.03 62.4 16.12C57.07 16.88 52.36 19.68 49.14 23.98C49.05 24.1 48.97 24.22 48.88 24.34C48.2 23.09 47.81 21.65 47.81 20.13C47.81 15.28 51.76 11.33 56.61 11.33C59.93 11.34 62.83 13.2 64.33 15.94ZM39.76 31.21C43.07 36.23 48.56 39.68 54.87 40.22C53.81 42.09 52.13 43.5 50.08 44.21C45.49 45.79 40.47 43.35 38.89 38.76C37.99 36.14 38.4 33.38 39.76 31.21ZM52.6 51.47C48.44 52.91 43.96 52.64 40 50.71C36.04 48.78 33.07 45.43 31.63 41.26C30.19 37.1 30.46 32.62 32.39 28.66C33.43 26.52 34.9 24.66 36.68 23.19C36.92 24.74 37.33 26.23 37.89 27.64C35.02 30.9 33.93 35.56 35.44 39.95C37.22 45.1 42.06 48.34 47.22 48.34C48.56 48.34 49.93 48.12 51.27 47.66C54.41 46.57 56.95 44.33 58.41 41.34C59.87 38.35 60.07 34.97 58.99 31.82C58.83 31.37 58.65 30.92 58.44 30.5C59.34 29.39 60.47 28.56 61.71 28.02C62.14 28.81 62.51 29.63 62.81 30.5C64.25 34.66 63.98 39.14 62.05 43.1C60.12 47.06 56.76 50.04 52.6 51.47ZM78.45 45.96C75.81 49.49 71.95 51.77 67.59 52.4C64.92 52.78 62.26 52.51 59.78 51.64C61 50.67 62.1 49.56 63.06 48.33C63.78 48.46 64.51 48.52 65.23 48.52C69.02 48.52 72.77 46.8 75.21 43.54C77.2 40.88 78.04 37.6 77.57 34.3C77.1 31.01 75.37 28.09 72.71 26.1C67.21 21.98 59.39 23.1 55.27 28.6C55.22 28.67 55.16 28.75 55.11 28.82C53.71 28.58 52.42 28.02 51.33 27.2C51.55 26.85 51.79 26.51 52.04 26.18C54.68 22.65 58.54 20.37 62.9 19.74C63.69 19.63 64.49 19.57 65.28 19.57C68.82 19.57 72.25 20.71 75.14 22.87C78.67 25.51 80.95 29.37 81.58 33.73C82.2 38.09 81.09 42.43 78.45 45.96ZM66.26 29.31C66.02 28.61 65.74 27.93 65.43 27.28C67.21 27.31 69 27.88 70.53 29.03C72.41 30.44 73.63 32.5 73.97 34.83C74.3 37.16 73.71 39.48 72.3 41.36C70.57 43.66 67.93 44.88 65.25 44.88C65.28 44.82 65.31 44.77 65.33 44.71C67.69 39.86 68.02 34.39 66.26 29.31ZM5.19 83.16L13.31 79.99V84.33H0V62.49H11.56V66.19L5.17999 63.66V71.32H10.22V73.01H5.17999V83.16H5.19ZM28.72 72.22L23.51 68.14C21.12 68.9 19.61 71.55 19.61 74.69C19.61 78.59 22.2 81.04 25.11 81.04C27.03 81.04 28.63 80.4 29.83 78.94L30.12 79.14C29.07 82.23 26.57 84.61 22.72 84.61C18.29 84.61 14.65 81.03 14.65 76.11C14.65 71.19 18.41 67.11 24.05 67.11C26.06 67.11 27.72 67.69 28.71 68.27V72.22H28.72ZM49.31 75.74C49.31 80.69 45.67 84.62 40.6 84.62C35.53 84.62 31.46 80.89 31.46 76.06C31.46 71.14 35.01 67.12 40.2 67.12C45.35 67.12 49.31 70.93 49.31 75.74ZM44.57 77.89C44.57 76.08 44.05 74.25 43.11 72.68C41.92 70.67 40.14 69.1 37.99 68.52C36.74 69.68 36.21 71.75 36.21 73.82C36.21 75.68 36.79 77.61 37.78 79.24C38.97 81.13 40.72 82.62 42.82 83.2C44.07 82.03 44.57 79.96 44.57 77.89ZM56.11 61.59V67.41H59.46V69.88H56.11V84.32H51.22V65.54L56.11 61.59ZM77.61 75.74C77.61 80.69 73.97 84.62 68.9 84.62C63.83 84.62 59.76 80.89 59.76 76.06C59.76 71.14 63.31 67.12 68.5 67.12C73.65 67.12 77.61 70.93 77.61 75.74ZM72.86 77.89C72.86 76.08 72.34 74.25 71.4 72.68C70.21 70.67 68.43 69.1 66.28 68.52C65.03 69.68 64.5 71.75 64.5 73.82C64.5 75.68 65.08 77.61 66.07 79.24C67.26 81.13 69.01 82.62 71.11 83.2C72.37 82.03 72.86 79.96 72.86 77.89ZM79.78 84.33V67.41H84.67V69.36C87.12 68.02 89.07 67.12 90.81 67.12C93.34 67.12 94.65 68.66 94.65 71.28V84.32H89.76V71.83C89.76 70.32 89.15 69.5 87.81 69.5C87.11 69.5 86.21 69.62 84.67 70.37V84.32H79.78V84.33ZM105.21 84.62C100.35 84.62 96.65 81.04 96.65 75.97C96.65 70.53 100.7 67.12 104.72 67.12C109.5 67.12 111.91 70.53 112.41 73.79H101.55C101.55 73.94 101.55 74.11 101.55 74.29C101.55 78.72 104.17 81.05 107.43 81.05C109.44 81.05 110.98 80.26 112.18 78.81L112.47 79.04C111.55 81.77 109.08 84.62 105.21 84.62ZM101.68 72.3H107.65C107.1 70.58 105.58 68.72 103.49 68.34C102.67 69.07 101.97 70.38 101.68 72.3ZM17.6 90.74C17.4 90.64 17.18 90.58 16.94 90.58H14.72V94.22H15.61V93.05H16.84C17.1 93.05 17.34 92.99 17.55 92.88C17.76 92.77 17.93 92.62 18.06 92.42C18.19 92.23 18.25 92.01 18.25 91.76C18.25 91.53 18.19 91.33 18.08 91.15C17.95 90.99 17.79 90.85 17.6 90.74ZM17.22 92.05C17.16 92.12 17.08 92.18 16.99 92.23C16.89 92.27 16.79 92.3 16.67 92.3H15.59V91.38H16.67C16.79 91.38 16.9 91.4 16.99 91.43C17.09 91.46 17.17 91.51 17.22 91.58C17.28 91.64 17.31 91.72 17.31 91.81C17.31 91.89 17.28 91.97 17.22 92.05ZM20.38 93.48H22.84V94.23H19.52V90.59H22.79V91.34H20.38V92.02H22.56V92.74H20.38V93.48ZM27.95 91.05C27.75 90.88 27.5 90.74 27.22 90.65C26.94 90.56 26.63 90.51 26.29 90.51C25.95 90.51 25.64 90.56 25.36 90.65C25.08 90.75 24.84 90.88 24.63 91.05C24.42 91.22 24.26 91.42 24.15 91.65C24.04 91.88 23.98 92.13 23.98 92.39C23.98 92.66 24.04 92.91 24.15 93.13C24.26 93.36 24.42 93.56 24.63 93.73C24.83 93.9 25.08 94.04 25.36 94.13C25.64 94.23 25.95 94.27 26.3 94.27C26.63 94.27 26.94 94.22 27.22 94.13C27.5 94.04 27.74 93.9 27.95 93.73C28.15 93.56 28.31 93.36 28.43 93.13C28.54 92.9 28.6 92.65 28.6 92.39C28.6 92.12 28.54 91.87 28.43 91.65C28.31 91.42 28.16 91.22 27.95 91.05ZM27.59 92.81C27.52 92.94 27.43 93.05 27.3 93.15C27.17 93.25 27.03 93.32 26.85 93.37C26.68 93.42 26.49 93.45 26.29 93.45C26.09 93.45 25.9 93.42 25.73 93.37C25.56 93.32 25.41 93.24 25.28 93.15C25.15 93.06 25.06 92.94 24.99 92.81C24.92 92.68 24.89 92.54 24.89 92.39C24.89 92.24 24.92 92.1 24.99 91.97C25.06 91.84 25.15 91.73 25.28 91.63C25.41 91.53 25.56 91.46 25.73 91.41C25.9 91.36 26.09 91.33 26.29 91.33C26.49 91.33 26.68 91.36 26.85 91.41C27.02 91.46 27.17 91.54 27.3 91.63C27.42 91.73 27.52 91.84 27.59 91.97C27.66 92.1 27.69 92.24 27.69 92.39C27.7 92.54 27.66 92.68 27.59 92.81ZM32.82 90.74C32.62 90.64 32.4 90.58 32.16 90.58H29.94V94.22H30.83V93.05H32.06C32.32 93.05 32.56 92.99 32.77 92.88C32.98 92.77 33.15 92.62 33.28 92.42C33.41 92.22 33.47 92.01 33.47 91.76C33.47 91.53 33.41 91.33 33.3 91.15C33.17 90.99 33.01 90.85 32.82 90.74ZM32.44 92.05C32.38 92.12 32.3 92.18 32.21 92.23C32.11 92.27 32.01 92.3 31.89 92.3H30.81V91.38H31.89C32.01 91.38 32.12 91.4 32.21 91.43C32.31 91.46 32.39 91.51 32.44 91.58C32.5 91.64 32.53 91.72 32.53 91.81C32.53 91.89 32.5 91.97 32.44 92.05ZM35.63 93.45H37.98V94.23H34.74V90.59H35.63V93.45ZM40.03 93.48H42.49V94.23H39.17V90.59H42.44V91.34H40.03V92.02H42.21V92.74H40.03V93.48ZM50.14 90.59H50.93V94.23H50.07V93.04C50.07 92.75 50.08 92.48 50.09 92.23C50.1 92.12 50.11 92.02 50.12 91.91L48.9 93.34H48.56L47.34 91.91C47.35 92.01 47.36 92.12 47.37 92.22C47.38 92.47 47.39 92.74 47.39 93.03V94.22H46.53V90.58H47.32L48.73 92.33L50.14 90.59ZM53.39 93.48H55.85V94.23H52.53V90.59H55.8V91.34H53.39V92.02H55.57V92.74H53.39V93.48ZM58.17 93.48H60.63V94.23H57.31V90.59H60.58V91.34H58.17V92.02H60.35V92.74H58.17V93.48ZM61.68 90.59H65.49V91.37H64.02V94.23H63.13V91.37H61.68V90.59ZM72.53 90.59H73.39V94.23H72.54L70.06 91.79C70.07 91.85 70.08 91.91 70.08 91.99C70.09 92.07 70.1 92.17 70.11 92.27C70.12 92.37 70.12 92.49 70.13 92.61C70.13 92.73 70.14 92.87 70.14 93.02V94.24H69.28V90.6H70.12L72.63 93.07C72.62 92.98 72.6 92.88 72.59 92.8C72.58 92.68 72.57 92.56 72.56 92.45C72.55 92.34 72.55 92.23 72.54 92.13C72.54 92.03 72.53 91.92 72.53 91.82C72.53 91.72 72.53 91.61 72.53 91.51V90.59ZM76.27 90.59L74.46 94.23H75.36L75.68 93.58H77.67L77.99 94.23H78.91L77.11 90.59H76.27ZM76.01 92.92L76.43 92.08C76.46 92.01 76.5 91.94 76.53 91.87C76.56 91.8 76.59 91.74 76.62 91.67C76.64 91.63 76.66 91.58 76.67 91.54C76.69 91.58 76.7 91.62 76.72 91.66C76.75 91.72 76.78 91.79 76.81 91.86C76.84 91.93 76.88 92 76.91 92.08L77.33 92.93H76.01V92.92ZM79.08 90.59H82.89V91.37H81.42V94.23H80.53V91.37H79.08V90.59ZM87 90.59H87.86V92.49C87.86 92.83 87.78 93.14 87.62 93.41C87.46 93.68 87.24 93.89 86.95 94.04C86.66 94.19 86.33 94.27 85.94 94.27C85.55 94.27 85.21 94.19 84.92 94.04C84.63 93.89 84.41 93.68 84.25 93.41C84.09 93.14 84.01 92.84 84.01 92.49V90.59H84.91V92.47C84.91 92.67 84.95 92.84 85.04 93C85.13 93.15 85.25 93.27 85.41 93.36C85.57 93.45 85.74 93.49 85.94 93.49C86.14 93.49 86.33 93.45 86.48 93.36C86.64 93.27 86.76 93.16 86.85 93C86.94 92.85 86.99 92.67 86.99 92.47V90.59H87ZM92.22 92.82C92.43 92.71 92.59 92.57 92.71 92.38C92.83 92.19 92.89 91.99 92.89 91.75C92.89 91.51 92.84 91.31 92.73 91.13C92.62 90.95 92.47 90.82 92.26 90.72C92.06 90.62 91.81 90.58 91.52 90.58H89.41V94.22H90.25V92.97H91.14L92.08 94.22H93.11L92.08 92.86C92.14 92.86 92.18 92.84 92.22 92.82ZM90.26 91.33H91.42C91.53 91.33 91.63 91.35 91.72 91.39C91.81 91.43 91.88 91.48 91.94 91.55C91.99 91.62 92.02 91.7 92.02 91.81C92.02 91.91 91.99 92 91.94 92.07C91.89 92.14 91.82 92.2 91.73 92.24C91.64 92.28 91.55 92.3 91.44 92.3H90.27V91.33H90.26ZM97.75 93.48V94.23H94.43V90.59H97.7V91.34H95.29V92.02H97.47V92.74H95.29V93.48H97.75Z"/>
</svg>
