<svg width="184" height="57" viewBox="0 0 184 57" fill="none" xmlns="http://www.w3.org/2000/svg">
<path d="M58.1361 33.21C57.3761 27.88 54.5761 23.17 50.2761 19.95C50.0761 19.8 49.8761 19.66 49.6761 19.52C49.3461 8.69999 40.4361 0 29.5361 0C18.8661 0 10.116 8.32999 9.43605 18.83C6.27605 20.81 3.71609 23.63 2.04609 27.07C-0.313905 31.91 -0.643898 37.37 1.1161 42.46C2.8761 47.55 6.50608 51.65 11.3461 54C14.1361 55.36 17.1361 56.04 20.1461 56.04C22.3561 56.04 24.5861 55.67 26.7361 54.93C27.5161 54.66 28.266 54.35 28.996 53.99L29.1261 54.07C31.9261 55.49 35.0061 56.23 38.1561 56.23C39.1161 56.23 40.0861 56.16 41.0561 56.02C46.3861 55.26 51.0961 52.46 54.3161 48.16C57.5361 43.84 58.8961 38.54 58.1361 33.21ZM29.5361 3.64999C37.6961 3.64999 44.4961 9.61 45.8061 17.41C44.3661 16.82 42.8761 16.4 41.3361 16.16C39.6761 11.24 35.0161 7.69 29.5361 7.69C22.6661 7.69 17.0761 13.28 17.0761 20.15C17.0761 26.6 22.0061 31.91 28.2861 32.54C28.3561 32.7 28.4161 32.86 28.4661 33.02C28.8761 34.2 29.0261 35.43 28.9161 36.63H28.8461C20.0661 36.27 13.0261 29.02 13.0261 20.15C13.0361 11.05 20.4361 3.64999 29.5361 3.64999ZM37.2661 15.94C36.6261 15.97 35.9761 16.03 35.3361 16.12C30.0061 16.88 25.2961 19.68 22.0761 23.98C21.9861 24.1 21.9061 24.22 21.8161 24.34C21.1361 23.09 20.746 21.65 20.746 20.13C20.746 15.28 24.6961 11.33 29.5461 11.33C32.8661 11.34 35.7661 13.2 37.2661 15.94ZM12.7061 31.21C16.0161 36.23 21.5061 39.68 27.8161 40.22C26.7561 42.09 25.0761 43.5 23.0261 44.21C18.4361 45.79 13.4161 43.35 11.8361 38.76C10.9261 36.14 11.3361 33.39 12.7061 31.21ZM25.5361 51.47C21.3761 52.91 16.896 52.64 12.936 50.71C8.97605 48.78 6.00605 45.43 4.56605 41.26C3.12605 37.1 3.39606 32.62 5.32606 28.66C6.36606 26.52 7.8361 24.66 9.6161 23.19C9.8561 24.74 10.2661 26.23 10.8261 27.64C7.95606 30.9 6.86605 35.56 8.37605 39.95C10.156 45.1 14.9961 48.34 20.1561 48.34C21.4961 48.34 22.8661 48.12 24.2061 47.66C27.3461 46.57 29.8861 44.33 31.3461 41.34C32.8061 38.35 33.0061 34.97 31.9261 31.82C31.7661 31.37 31.5861 30.92 31.3761 30.5C32.2761 29.39 33.4061 28.56 34.6461 28.02C35.0761 28.81 35.446 29.63 35.746 30.5C37.186 34.66 36.9161 39.14 34.9861 43.1C33.0561 47.06 29.6961 50.04 25.5361 51.47ZM51.3861 45.96C48.7461 49.49 44.8861 51.77 40.5261 52.4C37.8561 52.78 35.1961 52.51 32.7161 51.64C33.9361 50.67 35.036 49.56 35.996 48.33C36.716 48.46 37.4461 48.52 38.1661 48.52C41.9561 48.52 45.7061 46.8 48.1461 43.54C50.1361 40.88 50.9761 37.6 50.5061 34.3C50.0361 31.01 48.3061 28.09 45.6461 26.1C40.1461 21.98 32.3261 23.1 28.2061 28.6C28.1561 28.67 28.0961 28.75 28.0461 28.82C26.6461 28.58 25.3561 28.02 24.2661 27.2C24.4861 26.85 24.7261 26.51 24.9761 26.18C27.6161 22.65 31.4761 20.37 35.8361 19.74C36.6261 19.63 37.4261 19.57 38.2161 19.57C41.7561 19.57 45.1861 20.71 48.0761 22.87C51.6061 25.51 53.8861 29.37 54.5161 33.73C55.1461 38.09 54.0361 42.43 51.3861 45.96ZM39.1961 29.31C38.9561 28.61 38.6761 27.93 38.3661 27.28C40.1461 27.31 41.9361 27.88 43.4661 29.03C45.3461 30.44 46.5661 32.5 46.9061 34.83C47.2361 37.16 46.6461 39.48 45.2361 41.36C43.5061 43.66 40.866 44.88 38.186 44.88C38.216 44.82 38.2461 44.77 38.2661 44.71C40.6261 39.86 40.9561 34.4 39.1961 29.31ZM76.5161 40.9L84.6361 37.73V42.07H71.3261V20.23H82.8861V23.93L76.5061 21.4V29.06H81.5461V30.75H76.5061V40.9H76.5161ZM100.056 29.95L94.8461 25.87C92.4561 26.63 90.9461 29.28 90.9461 32.42C90.9461 36.32 93.5361 38.77 96.4461 38.77C98.3661 38.77 99.9661 38.13 101.166 36.67L101.456 36.87C100.406 39.96 97.9061 42.34 94.0561 42.34C89.6261 42.34 85.9861 38.76 85.9861 33.84C85.9861 28.92 89.7461 24.84 95.3861 24.84C97.3961 24.84 99.0561 25.42 100.046 26V29.95H100.056ZM120.646 33.48C120.646 38.43 117.006 42.36 111.936 42.36C106.866 42.36 102.796 38.63 102.796 33.8C102.796 28.88 106.346 24.86 111.536 24.86C116.686 24.86 120.646 28.67 120.646 33.48ZM115.896 35.63C115.896 33.82 115.376 31.99 114.436 30.42C113.246 28.41 111.466 26.84 109.316 26.26C108.066 27.42 107.536 29.49 107.536 31.56C107.536 33.42 108.116 35.35 109.106 36.98C110.296 38.87 112.046 40.36 114.146 40.94C115.406 39.77 115.896 37.7 115.896 35.63ZM127.446 19.33V25.15H130.796V27.62H127.446V42.06H122.556V23.28L127.446 19.33ZM148.946 33.48C148.946 38.43 145.306 42.36 140.236 42.36C135.166 42.36 131.096 38.63 131.096 33.8C131.096 28.88 134.646 24.86 139.836 24.86C144.986 24.86 148.946 28.67 148.946 33.48ZM144.196 35.63C144.196 33.82 143.676 31.99 142.736 30.42C141.546 28.41 139.766 26.84 137.616 26.26C136.366 27.42 135.836 29.49 135.836 31.56C135.836 33.42 136.416 35.35 137.406 36.98C138.596 38.87 140.346 40.36 142.446 40.94C143.706 39.77 144.196 37.7 144.196 35.63ZM151.106 42.07V25.15H155.996V27.1C158.446 25.76 160.396 24.86 162.136 24.86C164.666 24.86 165.976 26.4 165.976 29.02V42.06H161.086V29.57C161.086 28.06 160.476 27.24 159.136 27.24C158.436 27.24 157.536 27.36 155.996 28.11V42.06H151.106V42.07ZM176.536 42.36C171.676 42.36 167.976 38.78 167.976 33.71C167.976 28.27 172.026 24.86 176.046 24.86C180.826 24.86 183.236 28.27 183.736 31.53H172.876C172.876 31.68 172.876 31.85 172.876 32.02C172.876 36.45 175.496 38.78 178.756 38.78C180.766 38.78 182.306 37.99 183.506 36.54L183.796 36.77C182.886 39.5 180.416 42.36 176.536 42.36ZM173.016 30.04H178.986C178.436 28.32 176.916 26.46 174.826 26.08C174.006 26.81 173.306 28.12 173.016 30.04ZM88.9261 48.48C88.7261 48.38 88.5061 48.32 88.2661 48.32H86.0461V51.96H86.9361V50.79H88.1661C88.4261 50.79 88.6661 50.73 88.8761 50.62C89.0861 50.51 89.2561 50.36 89.3861 50.16C89.5161 49.97 89.5761 49.75 89.5761 49.5C89.5761 49.27 89.5161 49.07 89.4061 48.89C89.2861 48.73 89.1261 48.59 88.9261 48.48ZM88.5561 49.79C88.4961 49.86 88.4161 49.92 88.3261 49.97C88.2261 50.01 88.1261 50.04 88.0061 50.04H86.9261V49.12H88.0061C88.1261 49.12 88.2361 49.14 88.3261 49.17C88.4261 49.2 88.5061 49.25 88.5561 49.32C88.6161 49.38 88.6461 49.46 88.6461 49.55C88.6361 49.63 88.6061 49.71 88.5561 49.79ZM91.7161 51.22H94.1761V51.97H90.8561V48.33H94.1261V49.08H91.7161V49.76H93.8961V50.48H91.7161V51.22ZM99.2861 48.79C99.0861 48.62 98.8361 48.48 98.5561 48.39C98.2761 48.29 97.9661 48.25 97.6261 48.25C97.2861 48.25 96.9761 48.3 96.6961 48.39C96.4161 48.49 96.1761 48.62 95.9661 48.79C95.7561 48.96 95.5961 49.16 95.4861 49.39C95.3761 49.62 95.3161 49.87 95.3161 50.13C95.3161 50.4 95.3761 50.65 95.4861 50.87C95.5961 51.1 95.7561 51.3 95.9661 51.47C96.1661 51.64 96.4161 51.78 96.6961 51.87C96.9761 51.97 97.2861 52.01 97.6361 52.01C97.9661 52.01 98.2761 51.96 98.5561 51.87C98.8361 51.77 99.0761 51.64 99.2861 51.47C99.4861 51.3 99.6461 51.1 99.7661 50.87C99.8761 50.64 99.9361 50.39 99.9361 50.13C99.9361 49.86 99.8761 49.61 99.7661 49.39C99.6461 49.16 99.4861 48.96 99.2861 48.79ZM98.9261 50.55C98.8561 50.68 98.7661 50.79 98.6361 50.89C98.5161 50.99 98.3661 51.06 98.1861 51.11C98.0161 51.16 97.8261 51.19 97.6261 51.19C97.4261 51.19 97.2361 51.16 97.0661 51.11C96.8961 51.06 96.7461 50.98 96.6161 50.89C96.4861 50.79 96.3961 50.68 96.3261 50.55C96.2561 50.42 96.2261 50.28 96.2261 50.13C96.2261 49.98 96.2561 49.84 96.3261 49.71C96.3961 49.58 96.4861 49.47 96.6161 49.37C96.7461 49.27 96.8961 49.2 97.0661 49.15C97.2361 49.1 97.4261 49.07 97.6261 49.07C97.8261 49.07 98.0161 49.1 98.1861 49.15C98.3561 49.2 98.5061 49.28 98.6361 49.37C98.7561 49.47 98.8561 49.58 98.9261 49.71C98.9961 49.84 99.0261 49.98 99.0261 50.13C99.0261 50.28 98.9961 50.42 98.9261 50.55ZM104.156 48.48C103.956 48.38 103.736 48.32 103.496 48.32H101.276V51.96H102.166V50.79H103.396C103.656 50.79 103.896 50.73 104.106 50.62C104.316 50.51 104.486 50.36 104.616 50.16C104.746 49.96 104.806 49.75 104.806 49.5C104.806 49.27 104.746 49.07 104.636 48.89C104.506 48.73 104.346 48.59 104.156 48.48ZM103.776 49.79C103.716 49.86 103.636 49.92 103.546 49.97C103.446 50.01 103.346 50.04 103.226 50.04H102.146V49.12H103.226C103.346 49.12 103.456 49.14 103.546 49.17C103.646 49.2 103.726 49.25 103.776 49.32C103.836 49.38 103.866 49.46 103.866 49.55C103.866 49.63 103.836 49.71 103.776 49.79ZM106.966 51.19H109.316V51.97H106.076V48.33H106.966V51.19ZM111.366 51.22H113.826V51.97H110.506V48.33H113.776V49.08H111.366V49.76H113.546V50.48H111.366V51.22ZM121.476 48.33H122.266V51.97H121.406V50.78C121.406 50.49 121.416 50.22 121.426 49.97C121.436 49.86 121.446 49.76 121.456 49.65L120.236 51.08H119.896L118.676 49.65C118.686 49.75 118.696 49.86 118.706 49.96C118.716 50.21 118.726 50.48 118.726 50.77V51.96H117.866V48.32H118.656L120.066 50.07L121.476 48.33ZM124.716 51.22H127.176V51.97H123.856V48.33H127.126V49.08H124.716V49.76H126.896V50.48H124.716V51.22ZM129.506 51.22H131.966V51.97H128.646V48.33H131.916V49.08H129.506V49.76H131.686V50.48H129.506V51.22ZM133.016 48.33H136.826V49.11H135.356V51.97H134.466V49.11H133.016V48.33ZM143.866 48.33H144.726V51.97H143.876L141.396 49.53C141.406 49.59 141.416 49.65 141.416 49.73C141.426 49.81 141.436 49.91 141.446 50.01C141.456 50.11 141.456 50.23 141.466 50.35C141.466 50.47 141.476 50.61 141.476 50.76V51.98H140.616V48.34H141.456L143.966 50.81C143.956 50.72 143.936 50.62 143.926 50.54C143.916 50.42 143.906 50.3 143.896 50.19C143.886 50.08 143.886 49.97 143.876 49.87C143.876 49.77 143.866 49.66 143.866 49.56C143.866 49.46 143.866 49.35 143.866 49.25V48.33ZM147.606 48.33L145.796 51.97H146.696L147.016 51.32H149.006L149.326 51.97H150.246L148.446 48.33H147.606ZM147.346 50.66L147.766 49.82C147.796 49.75 147.836 49.68 147.866 49.61C147.896 49.54 147.926 49.48 147.956 49.41C147.976 49.37 147.996 49.32 148.006 49.28C148.026 49.32 148.036 49.36 148.056 49.4C148.086 49.46 148.116 49.53 148.146 49.6C148.176 49.67 148.216 49.74 148.246 49.82L148.666 50.67H147.346V50.66ZM150.416 48.33H154.226V49.11H152.756V51.97H151.866V49.11H150.416V48.33ZM158.336 48.33H159.196V50.23C159.196 50.57 159.116 50.88 158.956 51.15C158.796 51.42 158.576 51.63 158.286 51.78C157.996 51.93 157.666 52.01 157.276 52.01C156.886 52.01 156.546 51.93 156.256 51.78C155.966 51.63 155.746 51.42 155.586 51.15C155.426 50.88 155.346 50.58 155.346 50.23V48.33H156.246V50.21C156.246 50.41 156.286 50.58 156.376 50.74C156.466 50.89 156.586 51.01 156.746 51.1C156.906 51.19 157.076 51.23 157.276 51.23C157.476 51.23 157.666 51.19 157.816 51.1C157.976 51.01 158.096 50.9 158.186 50.74C158.276 50.59 158.326 50.41 158.326 50.21V48.33H158.336ZM163.556 50.56C163.766 50.45 163.926 50.31 164.046 50.12C164.166 49.93 164.226 49.73 164.226 49.49C164.226 49.25 164.176 49.05 164.066 48.87C163.956 48.69 163.806 48.56 163.596 48.46C163.396 48.36 163.146 48.32 162.856 48.32H160.746V51.96H161.586V50.71H162.476L163.416 51.96H164.446L163.416 50.6C163.476 50.6 163.516 50.58 163.556 50.56ZM161.586 49.07H162.746C162.856 49.07 162.956 49.09 163.046 49.13C163.136 49.17 163.206 49.22 163.266 49.29C163.316 49.36 163.346 49.44 163.346 49.55C163.346 49.65 163.316 49.74 163.266 49.81C163.216 49.88 163.146 49.94 163.056 49.98C162.966 50.02 162.876 50.04 162.766 50.04H161.596V49.07H161.586ZM169.076 51.22V51.97H165.756V48.33H169.026V49.08H166.616V49.76H168.796V50.48H166.616V51.22H169.076Z" fill="#906730"/>
</svg>
